<?xml version="1.0" encoding="utf-8"?>
<!-- Generator: Adobe Illustrator 26.0.3, SVG Export Plug-In . SVG Version: 6.00 Build 0)  -->
<svg version="1.0" id="Layer_1" xmlns="http://www.w3.org/2000/svg" xmlns:xlink="http://www.w3.org/1999/xlink" x="0px" y="0px"
	 viewBox="0 0 1169.8 741" style="enable-background:new 0 0 1169.8 741;" xml:space="preserve">
<style type="text/css">
	.st0{fill:url(#SVGID_1_);}
	.st1{fill:#232323;}
	.st2{fill:#FFFFFF;}
	.st3{fill:#DADADA;}
	.st4{fill:#020202;}
	.st5{fill:#E03A36;}
	.st6{fill:#EF3E43;}
	.st7{fill:#212121;}
</style>
<radialGradient id="SVGID_1_" cx="2309.0383" cy="1289.8535" r="786.7" fx="2309.0383" fy="622.1162" gradientTransform="matrix(0.33 0 0 0.33 -205.6645 -69.0256)" gradientUnits="userSpaceOnUse">
	<stop  offset="0.2" style="stop-color:#E03C3B"/>
	<stop  offset="0.65" style="stop-color:#E03C3B"/>
	<stop  offset="0.72" style="stop-color:#DD3C3B"/>
	<stop  offset="0.78" style="stop-color:#D33B3A"/>
	<stop  offset="0.82" style="stop-color:#C33938"/>
	<stop  offset="0.87" style="stop-color:#AC3736"/>
	<stop  offset="0.91" style="stop-color:#8E3434"/>
	<stop  offset="0.95" style="stop-color:#6A3030"/>
	<stop  offset="0.99" style="stop-color:#3F2C2C"/>
	<stop  offset="1" style="stop-color:#2F2A2B"/>
</radialGradient>
<path class="st0" d="M303.5,371.3c0-141.7,114.9-256.6,256.6-256.6s256.6,114.9,256.6,256.6S701.9,627.9,560.1,627.9
	S303.5,513,303.5,371.3z"/>
<path class="st1" d="M373.7,438.2c-4.3-27.1,6.6-46.1,17.4-56.6c4.9-4.8,10.7-9.2,15.9-9c7.7-0.6,47.7,28.6,101.2,61.2
	c27.8,20.1,40.9,22.5,40.8,31.5v-1.4c-3.5,22.4-21.9,49.4-47.4,55.7C440.1,538.1,386.5,499.7,373.7,438.2L373.7,438.2z"/>
<path class="st1" d="M560.1,630.3c-143,0-259-116-259-259s116-259,259-259s259,116,259,259c0,68.7-27.3,134.6-75.9,183.1
	C694.8,603.1,628.8,630.5,560.1,630.3L560.1,630.3z M560.1,117c-140.2,0-254.2,114.1-254.2,254.3s114,254.3,254.2,254.3
	c140.4,0,254.3-113.8,254.3-254.3c0,0,0,0,0,0C814.4,231.1,700.3,117,560.1,117L560.1,117z"/>
<path class="st1" d="M746.6,438.2c4.3-27.1-6.6-46.1-17.4-56.6c-4.9-4.8-10.7-9.2-15.9-9c-7.7-0.6-47.7,28.6-101.2,61.2
	c-27.8,20.1-40.8,22.5-40.8,31.5v-1.4c3.5,22.4,21.9,49.4,47.4,55.7C680.1,538.1,733.8,499.6,746.6,438.2L746.6,438.2z"/>
<path class="st2" d="M579.1,457.6c-4.5,2.4-5.4,4.6-3.9,9.4c3.7,12.7,9.2,22.8,16.3,30.5c17.1,18.7,43.2,23.7,75.2,20.1
	c27.2-4.4,40.5-12.8,60.8-38c8.9-17.8,20.7-43.1,7.3-72.7c-3.7-8.2-9.5-15-16.4-20.8c-2.5-2.2-4.5-2.3-7.5-0.7
	C698.6,392.4,603.6,444.5,579.1,457.6L579.1,457.6L579.1,457.6z"/>
<path class="st3" d="M668.5,490.2c-43.7,12.8-84.7-3.2-84.7-3.2s19.2,34.1,66.3,33.8c54.2-4.2,75.2-34.2,84.5-53.8
	c6.6-13.9,8.4-29.5,5.3-44.6C738.4,415.5,732.7,471.8,668.5,490.2z"/>
<path class="st2" d="M541.6,457.6c4.5,2.4,5.4,4.6,4,9.4c-3.7,12.7-9.2,22.8-16.3,30.5c-17.1,18.7-43.2,23.7-75.2,20.1
	c-27.3-4.4-40.5-12.8-60.9-38c-8.9-17.8-20.7-43.1-7.3-72.7c3.7-8.2,9.5-15,16.4-20.8c2.5-2.2,4.5-2.3,7.5-0.7
	C422.2,392.4,517.2,444.5,541.6,457.6L541.6,457.6L541.6,457.6z"/>
<path class="st3" d="M452.3,490.2c43.7,12.8,84.7-3.2,84.7-3.2s-19.2,34.1-66.3,33.8c-54.2-4.2-75.2-34.2-84.5-53.8
	c-6.6-13.9-8.4-29.5-5.3-44.6C382.4,415.5,388.1,471.8,452.3,490.2z"/>
<path class="st4" d="M663.7,458.6c5.5,25.2,4.7,55.9,4.7,55.9c0,1.6,0,1.6,1.1,5.1c7.8-14.8,12.6-31,14.1-47.7
	c2.2-21.5-1-39.3-11.1-65.4c-6.7-12.3-13.5-24.5-23-35c-14.4-16-20.6-11.2-37.2-2c-1.6,1.2-4.9,4.4-4.9,4.4
	C625.5,385.4,651,403.9,663.7,458.6z"/>
<path class="st5" d="M404.9,279.7c7.8-4.9,16.2-13.9,21.1-28.6c7.4-23.7,1.3-35,1.3-35s-6.6,5.2-23.7,0.2
	c-17.8-5.2-25.8-6.1-57.3-36.9c-36.8-37.5-54.4-78.5-54.4-78.5c0.1,7.2,0.5,14.3,1.4,21.4c0,0,7.7,47,41,89.7
	c21.7,27.8,44.1,45.5,54.1,51.7C400.4,271.1,404.8,272.9,404.9,279.7"/>
<path class="st1" d="M293.4,122.2c-0.7-7.1-1.1-14.2-1.4-21.4c21.1,45.7,56.8,86.2,86.7,105.8c7.8,5.1,17.3,7.7,25,9.6
	c17,4.3,23.6,0.8,25.1-1.8c1.4-2.3,1.1-5.4-0.9-9.2c-2.5-4.9-7.2-7.3-14.3-7.3c-5.6,0-12.1,1.6-17.8,2.9
	c-12.1,2.8-13.6,1.3-13.6,1.3c-26.3-17.1-63-50.2-89-110.5c-1.7-3.8-2.2-4.9-4.2-4.5c-1.1,0.2-2,1.2-1.9,2.4
	c-2.8,28.7,4.9,109.6,48.2,171.6c2.9,4.1,5.3,7.4,6.4,10.4c3.7,10.3-2.6,21.4-2.6,21.4c-7.7,15.3-1.9,50.1,12.9,51.3
	c8.6,0.7,13.9-13,18-19.4s18.4-22.8,27.2-32.3c8.8-9.6,11.2-16.1,1.9-22.6c-3.3-2.3-6.8-4.4-10.4-6.2c0,0-27.3-16.6-55-52.9
	C301.1,168.4,293.4,122.2,293.4,122.2L293.4,122.2z"/>
<path class="st5" d="M714.2,279.7c-7.8-4.9-16.2-13.9-21.1-28.6c-7.4-23.7-1.3-35-1.3-35s6.6,5.2,23.7,0.2
	c17.8-5.2,25.8-6.1,57.3-36.9c36.8-37.5,54.4-78.6,54.4-78.6c-0.1,7.1-0.5,14.3-1.4,21.4c0,0-7.7,47-41,89.7
	c-21.7,27.8-44.1,45.5-54.1,51.7C718.6,271.1,714.3,272.9,714.2,279.7"/>
<path class="st1" d="M825.7,122.2c0.7-7.1,1.1-14.2,1.4-21.4c-21.1,45.7-56.8,86.2-86.7,105.8c-7.8,5.1-17.3,7.7-25,9.6
	c-17,4.3-23.5,0.8-25.1-1.8c-1.4-2.3-1.1-5.4,0.9-9.2c2.5-4.9,7.2-7.3,14.3-7.3c5.6,0,12.1,1.6,17.8,2.9c12.1,2.8,13.6,1.3,13.6,1.3
	c26.3-17.1,63-50.2,89-110.5c1.6-3.8,2.1-4.9,4.1-4.5c1.1,0.2,2,1.3,1.9,2.4c2.8,28.7-4.9,109.6-48.2,171.6
	c-2.9,4.1-5.3,7.4-6.3,10.4c-3.7,10.3,2.6,21.3,2.6,21.3c7.7,15.3,1.9,50.1-12.9,51.3c-8.6,0.7-13.9-13-18-19.4
	s-18.3-22.8-27.2-32.3s-11.2-16.1-1.9-22.6c3.3-2.3,6.8-4.4,10.4-6.2c0,0,27.3-16.6,55-52.9C818,168.4,825.7,122.2,825.7,122.2
	L825.7,122.2z"/>
<path class="st4" d="M456.5,458.6c-5.5,25.2-4.7,55.9-4.7,55.9c0,1.6,0,1.6-1.1,5.1c-7.8-14.8-12.6-31-14.1-47.7
	c-2.2-21.5,1-39.3,11.1-65.4c6.7-12.3,13.5-24.5,23-35c14.4-16,20.6-11.2,37.2-2c1.6,1.2,4.9,4.4,4.9,4.4
	C494.7,385.4,469.2,403.9,456.5,458.6z"/>
<path class="st2" d="M928.3,540.4c-2.9,0-5.7-0.5-8.4-1.3c-2.9-0.9-5.6-2.3-7.9-4.1c-2.5-2-4.5-4.5-5.9-7.3
	c-3.1-6.9-3.1-14.7,0-21.6c1.4-2.8,3.4-5.3,5.9-7.3c2.4-1.9,5-3.3,7.9-4.1c5.5-1.7,11.4-1.7,16.8,0c2.9,0.9,5.6,2.3,8,4.1
	c2.5,2,4.5,4.5,5.9,7.3c3.1,6.9,3.1,14.7,0,21.6c-1.4,2.8-3.4,5.3-5.9,7.3c-2.4,1.9-5.1,3.3-8,4.1C934,540,931.2,540.4,928.3,540.4z
	 M928.3,535.3c2.2,0,4.5-0.3,6.6-1c2.2-0.6,4.2-1.7,6-3.2c1.8-1.6,3.3-3.5,4.2-5.7c2.1-5.5,2.1-11.6,0-17.1c-1-2.2-2.4-4.2-4.2-5.7
	c-1.7-1.5-3.8-2.5-6-3.2c-4.3-1.3-9-1.3-13.3,0c-2.2,0.6-4.2,1.7-5.9,3.2c-1.8,1.6-3.3,3.5-4.2,5.7c-2.1,5.5-2.1,11.6,0,17.1
	c1,2.2,2.4,4.1,4.2,5.7c1.7,1.5,3.7,2.5,5.9,3.2C923.8,534.9,926.1,535.3,928.3,535.3z M932.5,529.1l-4.5-9.1h-2.2v9.1H921v-24.9
	h7.2c2.2-0.1,4.4,0.6,6.2,1.9c1.7,1.4,2.7,3.5,2.5,5.8c0,1.5-0.4,2.9-1.2,4.1c-0.8,1.2-1.9,2.1-3.1,2.8l5.4,10.2H932.5z
	 M925.9,508.2v7.9h2.2c1,0,2-0.4,2.7-1.1c0.7-0.8,1.1-1.9,1-3c0.1-1-0.3-2-1-2.8c-0.8-0.7-1.8-1.1-2.9-1H925.9L925.9,508.2z"/>
<path class="st2" d="M285.1,650.3c18.9,0,34.7-6.1,46.8-18.1l2.2-2.2l-15.6-21.7l-3,3.9c-6.6,8.7-15.9,13-28.4,13
	c-11.3,0-20.4-4.6-27.6-13.9c-7.2-9.4-11-22.2-11-37.8c0-16.4,3.6-29.9,10.8-40.2c7-10,16-14.8,27.6-14.8c12.7,0,22,2.1,27.7,6.2
	l3.8,2.8l9.5-24.2l-2.7-1.6c-9.4-5.5-22.5-8.3-38.8-8.3c-19.4,0-35.5,7.7-47.7,22.8c-12.1,14.9-18.2,33.7-18.2,56.1
	c0,23,5.7,41.9,17.1,56.2C249.1,643,265.1,650.3,285.1,650.3L285.1,650.3z M388.4,649.8h3.6v-24h-3.6c-4.3,0-7.6-1.2-10.2-3.8
	s-3.8-6.1-3.8-10.8V491.5h-26v122.8C348.4,643.6,370.1,649.8,388.4,649.8L388.4,649.8z M456.8,593.9c3,0.2,5.9,0.6,8.8,1.3v21.3
	c-6.4,7.5-13.5,11.2-21.5,11.2c-14,0-15.8-6.9-15.8-12.9c0-5.5,2.5-10.3,7.6-14.5C441,596.2,448.2,593.9,456.8,593.9L456.8,593.9z
	 M436.6,649.8c14.1,0,25.3-3.8,33.4-11.3c1.8,3.1,4.3,5.7,7.4,7.4c4.4,2.5,10.6,3.7,18.9,3.7h3.6v-15.1l-1.9-1
	c-4.3-2.4-6.4-7.5-6.4-15.4v-38c0-16.1-3.9-28.2-11.5-35.8s-19.7-11.5-36-11.5c-6.5,0.1-13,1.2-19.1,3.4c-6.7,2.2-12,4.9-15.9,8.1
	l-2.2,1.8l11.5,22.8l3.5-3.5c5.6-5.6,13.8-8.4,24.5-8.4c11.6,0,17.7,5.5,19,17.1c-3.1-0.8-6.3-1.2-9.6-1.3c-15.3,0-28.1,4-38.1,11.9
	c-10.2,8.1-15.4,18.2-15.4,30c0,9.9,3.4,18.3,10.2,25C418.8,646.1,427.5,649.8,436.6,649.8L436.6,649.8z M637.5,647.8h26v-74.3
	c0-12.6-3.3-22.6-9.9-29.7c-6.6-7.1-16.1-10.9-28-10.9c-6.7,0-13.2,1.5-19.2,4.4c-3.9,1.7-7.4,4.2-10.3,7.3
	c-7-7.7-17.6-11.7-31.7-11.7c-10-0.1-19.6,4-26.4,11.3l-4.8-9.4h-18.1v113h26v-80.7c1.9-3,4.4-5.6,7.5-7.5c3.6-2.5,7-3.7,9.9-3.7
	c5.6,0,10.1,1.3,13.3,3.8c3,2.2,4.6,5.7,4.4,9.4v78.7h26v-81c1.5-3,3.8-5.5,6.6-7.3c3.1-2.3,6.8-3.5,10.6-3.5c7.7,0,18,2.2,18,21.3
	L637.5,647.8L637.5,647.8z"/>
<path class="st6" d="M757.9,595.5h-32.8l17.1-48.7L757.9,595.5z M775.9,647.8h29.8L748.5,494h-10.2l-61.6,153.8h30l10.7-30.5h48.5
	L775.9,647.8z M829.7,649.8h15.1L899.6,496h-29l-33.3,98.9L802.8,496h-29.7L829.7,649.8L829.7,649.8z"/>
<path class="st7" d="M286.4,489.8c-20.6,0-37.6,8.1-50.6,24.1c-12.6,15.5-19,35.2-19,58.4c0,23.9,6,43.5,17.9,58.4
	c12.3,15.4,29.2,23.2,50.3,23.2c19.9,0,36.5-6.5,49.3-19.2l4.4-4.4l-3.6-5l-10.9-15.2l-5.7-8l-5.9,7.8c-5.9,7.8-14.2,11.5-25.5,11.5
	c-10.1,0-18.2-4.1-24.7-12.5c-6.8-8.8-10.3-20.8-10.3-35.5c0-15.6,3.4-28.4,10.2-38.1c6.3-9,14.3-13.3,24.6-13.3
	c11.8,0,20.6,1.9,25.5,5.5l7.6,5.5l3.4-8.8l6.6-16.9l2.3-5.8l-5.4-3.1C317,492.8,303.4,489.8,286.4,489.8z M286.4,497.1
	c15.7,0,28,2.6,36.9,7.8l-6.6,16.9c-6.3-4.6-16.3-6.9-29.8-6.9c-12.7,0-22.9,5.5-30.6,16.4c-7.7,10.9-11.5,25-11.5,42.2
	c0,16.5,3.9,29.8,11.8,40c7.9,10.2,18,15.3,30.4,15.4c13.6,0,24-4.8,31.3-14.4l10.9,15.1c-11.5,11.4-26.2,17.1-44.2,17.1
	c-18.9,0-33.8-6.8-44.6-20.4c-10.9-13.6-16.3-31.6-16.3-53.9c0-21.6,5.8-39.5,17.4-53.8C253.1,504.2,268.1,497.1,286.4,497.1
	L286.4,497.1z M378,487.9h-33.3v126.4c0,12.8,3.9,22.7,11.6,29.4c7.4,6.5,18.2,9.8,32.1,9.8h7.3v-31.3h-7.3c-4.4,0-6.5-1.6-7.6-2.8
	c-1.9-1.9-2.8-4.5-2.8-8.2V487.9L378,487.9z M370.7,495.1v116c0,5.7,1.6,10.1,4.9,13.4c3.3,3.3,7.5,4.9,12.8,4.9v16.8
	c-24.3,0-36.4-10.6-36.4-31.9V495.1H370.7z M444.1,624.1c-11.2,0-12.2-4.4-12.2-9.2c0-4.5,2-8.1,6.3-11.6c4.7-3.8,10.8-5.7,18.6-5.7
	c1.7,0.1,3.5,0.3,5.2,0.7v17C456.5,621.2,450.6,624.2,444.1,624.1L444.1,624.1z M444.1,631.4c9.5,0,17.9-4.5,25.2-13.5v-25.6
	c-5.9-1.3-10.1-2-12.4-2c-9.5,0-17.2,2.4-23.2,7.3c-6,4.9-9,10.6-9,17.3C424.6,625.9,431.1,631.4,444.1,631.4L444.1,631.4z
	 M444.2,529.3c-6.9,0.1-13.7,1.2-20.3,3.5c-7.2,2.4-12.8,5.2-17.1,8.7l-4.5,3.7l2.6,5.2l7.9,15.7l4.5,9l7.1-7.1
	c5-5,12.1-7.3,21.9-7.3c6.1,0,12,1.3,14.4,8.9c-1.6-0.2-3.3-0.3-4.9-0.3c-16.1,0-29.7,4.3-40.4,12.7c-11.2,8.8-16.8,19.9-16.8,32.9
	c0,10.9,3.8,20.2,11.3,27.6c7,7.2,16.6,11.2,26.7,11.1c13.3,0,24.3-3.2,32.7-9.6c1.8,2.1,3.9,3.9,6.3,5.3c4.9,2.8,11.7,4.2,20.7,4.2
	h7.3v-20.9l-3.7-2.1c-1.1-0.6-4.6-2.6-4.6-12.2v-37.9c0-17.1-4.2-30-12.5-38.4S461.4,529.2,444.2,529.3L444.2,529.3z M444.2,536.5
	c15.3,0,26.5,3.5,33.4,10.5s10.4,18,10.4,33.2v37.9c0,9.3,2.8,15.5,8.3,18.6v9.4c-7.6,0-13.3-1.1-17.1-3.2
	c-3.8-2.2-6.5-5.8-8.1-10.8c-7.5,9.5-19,14.2-34.5,14.2c-8.1,0.1-15.9-3.2-21.6-9c-6-5.9-9.3-14-9.1-22.5c0-10.7,4.7-19.8,14.1-27.2
	c9.4-7.4,21.3-11.1,35.9-11.1c4.6,0.1,9.1,1,13.4,2.6c0-17.1-7.6-25.7-22.9-25.7c-11.7,0-20.7,3.2-27,9.5l-7.9-15.7
	c3.5-2.9,8.5-5.4,14.8-7.4C432,537.6,438.1,536.6,444.2,536.5L444.2,536.5z M625.5,529.2c-7.2,0-14.3,1.6-20.8,4.8
	c-3.1,1.4-6.1,3.3-8.7,5.5c-7.6-6.8-18.2-10.2-31.7-10.2c-9.3-0.1-18.2,3.1-25.3,9.1l-1.6-3.1l-2-4h-24v120.3h33.3v-83.3
	c1.6-2.2,3.6-4.1,5.9-5.5c3-2,5.7-3.1,7.9-3.1c4.8,0,8.5,1,11.1,3c2.1,1.5,3.2,4,3,6.5v82.4h33.3v-83.8c1.3-2.1,3-3.9,5-5.2
	c2.5-1.8,5.5-2.8,8.5-2.9c11.9,0,14.4,7.1,14.4,17.7v74.2H667v-78c0-13.5-3.7-24.4-10.9-32.2S638.5,529.2,625.5,529.2z M625.5,536.5
	c10.9,0,19.4,3.3,25.4,9.7s9,15.6,9,27.3v70.7h-18.8v-66.9c0-16.7-7.2-25-21.6-25c-4.6,0-9,1.5-12.7,4.2c-3.6,2.3-6.4,5.6-8.1,9.5
	v78.2h-18.8v-75.1c0.2-4.8-2-9.4-5.9-12.3c-3.9-3-9.1-4.5-15.5-4.5c-3.8,0-7.8,1.4-12,4.3c-3.8,2.4-6.8,5.7-9,9.6v78h-18.8V538.5
	h12.2l6.2,12.2c7.2-9.5,16.3-14.2,27.2-14.2c15.1,0,25.7,4.7,31.8,14.1c2.1-4,6-7.4,11.7-10.1C613.3,537.9,619.4,536.5,625.5,536.5
	L625.5,536.5z M730.2,591.9l11.9-33.7l10.8,33.7H730.2z M720,599.2h42.9l-20.5-63.7L720,599.2z M751,490.4h-15.2l-1.8,4.6
	l-58.7,146.6l-4,10h38l1.7-4.9l8.9-25.7h43.4l8.3,25.5l1.6,5h37.6l-3.6-9.8l-54.5-146.6L751,490.4L751,490.4z M746,497.6l54.4,146.6
	h-21.9l-10-30.5h-53.8l-10.6,30.5H682l58.7-146.6L746,497.6z M904.8,492.3H868l-1.7,5l-29.1,86.4l-30.2-86.5l-1.7-4.9h-37.5l3.6,9.8
	l53.9,146.6l1.8,4.8h20.2l1.7-4.8L901.3,502L904.8,492.3L904.8,492.3z M894.5,499.6l-52.3,146.6h-10l-53.9-146.6h21.9l37.2,106.5
	l35.8-106.5L894.5,499.6z"/>
</svg>
